<svg width="251" height="52" viewBox="0 0 251 52" fill="none" xmlns="http://www.w3.org/2000/svg">
<path d="M0.600006 11.5H0V21.2H11.8C12.9 21.2 13.3 22.7 12.3 23.2L10 24.3C6.9 25.8 3.80001 26.6 0.600006 26.6H0V36.3H11.5C12.6 36.3 13 37.8 12 38.3L9.60001 39.4C6.70001 40.8 3.60001 41.5 0.600006 41.5H0V51.2H11.5L12.8 49.6C18.4 43.1 24.9 39.7 31.7 39.7H32.2V30H20.7C19.6 30 19.2 28.5 20.2 28L22.6 26.9C25.5 25.5 28.6 24.8 31.6 24.8H32.1V15.1H20.4C19.3 15.1 18.9 13.6 19.9 13.1L22.2 12C25.3 10.5 28.4 9.70001 31.6 9.70001H32.1V0H20.6L19.3 1.60001C13.9 8.10001 7.30001 11.5 0.600006 11.5Z" fill="url(#paint0_linear_204_3)"/>
<path d="M43.3438 49V12.6364H69.5511V20.5909H53.2159V26.8409H68.2017V34.7955H53.2159V41.0455H69.4801V49H43.3438ZM105.91 12.6364V49H97.6717L84.5325 29.8949H84.3194V49H74.4473V12.6364H82.8279L95.7541 31.6705H96.0382V12.6364H105.91ZM120.452 12.6364V49H110.58V12.6364H120.452ZM148.746 24.6392C148.592 24.0118 148.349 23.4614 148.018 22.9879C147.686 22.5026 147.272 22.0942 146.775 21.7628C146.29 21.4195 145.722 21.165 145.07 20.9993C144.431 20.8217 143.727 20.733 142.958 20.733C141.3 20.733 139.886 21.1295 138.714 21.9226C137.554 22.7157 136.666 23.858 136.051 25.3494C135.447 26.8409 135.145 28.6402 135.145 30.7472C135.145 32.8778 135.435 34.7008 136.015 36.2159C136.595 37.7311 137.459 38.8911 138.607 39.696C139.756 40.5009 141.182 40.9034 142.887 40.9034C144.39 40.9034 145.639 40.6844 146.633 40.2464C147.639 39.8085 148.391 39.187 148.888 38.3821C149.385 37.5772 149.634 36.6302 149.634 35.5412L151.338 35.7188H143.029V28.6875H159.151V33.7301C159.151 37.0445 158.446 39.8795 157.038 42.2351C155.641 44.5788 153.712 46.3781 151.249 47.6328C148.799 48.8757 145.988 49.4972 142.816 49.4972C139.276 49.4972 136.169 48.7455 133.494 47.2422C130.819 45.7389 128.729 43.5964 127.226 40.8146C125.735 38.0329 124.989 34.7244 124.989 30.8892C124.989 27.8826 125.445 25.2192 126.356 22.8991C127.279 20.5791 128.558 18.62 130.191 17.022C131.825 15.4122 133.713 14.1989 135.855 13.3821C137.998 12.5535 140.294 12.1392 142.744 12.1392C144.899 12.1392 146.899 12.447 148.746 13.0625C150.604 13.6662 152.244 14.5303 153.664 15.6548C155.097 16.7675 156.251 18.0874 157.127 19.6143C158.003 21.1413 158.535 22.8163 158.725 24.6392H148.746ZM163.754 12.6364H176.041L184.493 33.233H184.919L193.37 12.6364H205.657V49H195.998V27.9773H195.714L187.618 48.7159H181.794L173.697 27.8352H173.413V49H163.754V12.6364ZM219.782 49H209.129L221.131 12.6364H234.626L246.629 49H235.975L228.021 22.6506H227.737L219.782 49ZM217.793 34.6534H237.822V42.0398H217.793V34.6534Z" fill="white"/>
<defs>
<linearGradient id="paint0_linear_204_3" x1="16.1" y1="0" x2="-4.4666e-07" y2="51" gradientUnits="userSpaceOnUse">
<stop stop-color="#D918FF"/>
<stop offset="0.49" stop-color="white" stop-opacity="0.75"/>
<stop offset="1" stop-color="#002BFF"/>
</linearGradient>
</defs>
</svg>
